<?xml version="1.0" encoding="utf-8"?>
<!-- Generator: Adobe Illustrator 18.0.0, SVG Export Plug-In . SVG Version: 6.00 Build 0)  -->
<!DOCTYPE svg PUBLIC "-//W3C//DTD SVG 1.1//EN" "http://www.w3.org/Graphics/SVG/1.1/DTD/svg11.dtd">
<svg version="1.1" xmlns="http://www.w3.org/2000/svg" xmlns:xlink="http://www.w3.org/1999/xlink" x="0px" y="0px"
	 viewBox="0 0 258.7 156.8" enable-background="new 0 0 258.7 156.8" xml:space="preserve">
<g id="Polygon_1_copy_5_1_" enable-background="new    ">
</g>
<g id="Polygon_1_copy_6_1_" enable-background="new    ">
</g>
<g id="Polygon_1_copy_7_1_" enable-background="new    ">
</g>
<g id="Polygon_1_copy_8_1_" enable-background="new    ">
</g>
<g id="Polygon_1_copy_9_1_" enable-background="new    ">
</g>
<g id="Polygon_1_copy_10_1_" enable-background="new    ">
</g>
<g id="Polygon_1_copy_11_1_" enable-background="new    ">
</g>
<g id="line_1_" enable-background="new    ">
</g>
<g id="______________settings_____________tools__________generic_1_">
</g>
<g id="reach_x09_">
</g>
<g id="specificity__x0D_explicitness">
</g>
<g id="Polygon_1_copy_1_" enable-background="new    ">
</g>
<g id="Polygon_1_copy_2_1_" enable-background="new    ">
</g>
<g id="Polygon_1_copy_3_1_" enable-background="new    ">
</g>
<g id="Polygon_1_copy_4_1_" enable-background="new    ">
	<g>
		<g id="Polygon_1_copy_5">
			<g>
				<polygon fill-rule="evenodd" clip-rule="evenodd" fill="#FB0EC7" points="29.3,22.2 39,39.2 174.2,39.2 183.8,22.2 				"/>
			</g>
		</g>
		<g id="Polygon_1_copy_6">
			<g>
				<polygon fill-rule="evenodd" clip-rule="evenodd" fill="#FB0EC7" points="39.8,40.4 49.2,57.1 164,57.1 173.6,40.3 				"/>
			</g>
		</g>
		<g id="Polygon_1_copy_7">
			<g>
				<polygon fill-rule="evenodd" clip-rule="evenodd" fill="#FB0EC7" points="50,58.2 59.9,75.5 153.2,75.5 163.1,58.2 				"/>
			</g>
		</g>
		<g id="Polygon_1_copy_8">
			<g>
				<polygon fill-rule="evenodd" clip-rule="evenodd" fill="#FB0EC7" points="60.5,76.9 70.4,93.6 142.7,93.6 152.6,76.6 				"/>
			</g>
		</g>
		<g id="Polygon_1_copy_9">
			<g>
				<polygon fill-rule="evenodd" clip-rule="evenodd" fill="#FB0EC7" points="71,94.8 80.3,110.9 132.8,110.9 142.1,94.8 				"/>
			</g>
		</g>
		<g id="Polygon_1_copy_10">
			<g>
				<polygon fill-rule="evenodd" clip-rule="evenodd" fill="#FB0EC7" points="80.9,112.1 90.5,128.8 122.6,128.8 132.2,112.1 				
					"/>
			</g>
		</g>
		<g id="Polygon_1_copy_11">
			<g>
				<polygon fill-rule="evenodd" clip-rule="evenodd" fill="#FB0EC7" points="91,129.8 106.3,155.8 122.2,129.8 				"/>
			</g>
		</g>
		<g>
			<path fill="#FB0EC7" d="M191.5,34.7c0.1,0.5,0.2,0.8,0.4,1c0.3,0.4,0.9,0.6,1.8,0.6c0.5,0,0.9-0.1,1.2-0.2
				c0.6-0.2,0.9-0.6,0.9-1.2c0-0.3-0.1-0.6-0.4-0.8c-0.3-0.2-0.8-0.3-1.4-0.5l-1.1-0.2c-1.1-0.2-1.8-0.5-2.2-0.8
				c-0.7-0.5-1-1.2-1-2.2c0-0.9,0.3-1.7,1-2.2c0.7-0.6,1.6-0.9,2.9-0.9c1.1,0,2,0.3,2.8,0.8c0.8,0.6,1.2,1.4,1.2,2.5h-2
				c0-0.6-0.3-1-0.8-1.3c-0.3-0.2-0.8-0.3-1.3-0.3c-0.6,0-1,0.1-1.3,0.3c-0.3,0.2-0.5,0.5-0.5,0.9c0,0.4,0.2,0.6,0.5,0.8
				c0.2,0.1,0.7,0.3,1.3,0.4l1.8,0.4c0.8,0.2,1.4,0.4,1.7,0.7c0.6,0.5,0.9,1.2,0.9,2.1c0,0.9-0.4,1.7-1.1,2.3s-1.7,0.9-3,0.9
				c-1.3,0-2.4-0.3-3.1-0.9c-0.8-0.6-1.1-1.4-1.1-2.5H191.5z"/>
			<path fill="#FB0EC7" d="M206.7,29.5h-5.3v2.1h4.9v1.7h-4.9V36h5.6v1.8h-7.6V27.7h7.4V29.5z"/>
			<path fill="#FB0EC7" d="M215.9,27.7v1.8h-3v8.3h-2.1v-8.3h-3v-1.8H215.9z"/>
			<path fill="#FB0EC7" d="M224.5,27.7v1.8h-3v8.3h-2.1v-8.3h-3v-1.8H224.5z"/>
			<path fill="#FB0EC7" d="M227.6,37.8h-2.1V27.7h2.1V37.8z"/>
			<path fill="#FB0EC7" d="M229.6,27.7h2.2l4,7v-7h2v10.1h-2.1l-4.1-7.1v7.1h-2V27.7z"/>
			<path fill="#FB0EC7" d="M246.5,30.9c-0.2-0.7-0.5-1.2-1.2-1.4c-0.3-0.2-0.7-0.2-1.2-0.2c-0.8,0-1.5,0.3-2,0.9
				c-0.5,0.6-0.8,1.5-0.8,2.8c0,1.2,0.3,2.1,0.8,2.6s1.2,0.8,1.9,0.8c0.7,0,1.3-0.2,1.7-0.6s0.7-0.9,0.8-1.6h-2.3v-1.7h4.2v5.4h-1.4
				l-0.2-1.3c-0.4,0.5-0.8,0.8-1.1,1c-0.6,0.3-1.2,0.5-2.1,0.5c-1.3,0-2.4-0.5-3.3-1.4c-0.9-0.9-1.3-2.2-1.3-3.8
				c0-1.6,0.4-2.9,1.3-3.9s2.1-1.5,3.6-1.5c1.3,0,2.3,0.3,3.1,1c0.8,0.6,1.2,1.5,1.3,2.4H246.5z"/>
			<path fill="#FB0EC7" d="M252.1,34.7c0.1,0.5,0.2,0.8,0.4,1c0.3,0.4,0.9,0.6,1.8,0.6c0.5,0,0.9-0.1,1.2-0.2
				c0.6-0.2,0.9-0.6,0.9-1.2c0-0.3-0.1-0.6-0.4-0.8c-0.3-0.2-0.8-0.3-1.4-0.5l-1.1-0.2c-1.1-0.2-1.8-0.5-2.2-0.8
				c-0.7-0.5-1-1.2-1-2.2c0-0.9,0.3-1.7,1-2.2c0.7-0.6,1.6-0.9,2.9-0.9c1.1,0,2,0.3,2.8,0.8c0.8,0.6,1.2,1.4,1.2,2.5h-2
				c0-0.6-0.3-1-0.8-1.3c-0.3-0.2-0.8-0.3-1.3-0.3c-0.6,0-1,0.1-1.3,0.3c-0.3,0.2-0.5,0.5-0.5,0.9c0,0.4,0.2,0.6,0.5,0.8
				c0.2,0.1,0.7,0.3,1.3,0.4l1.8,0.4c0.8,0.2,1.4,0.4,1.7,0.7c0.6,0.5,0.9,1.2,0.9,2.1c0,0.9-0.4,1.7-1.1,2.3s-1.7,0.9-3,0.9
				c-1.3,0-2.4-0.3-3.1-0.9c-0.8-0.6-1.1-1.4-1.1-2.5H252.1z"/>
			<path fill="#FB0EC7" d="M188.9,45.7v1.8h-3v8.3h-2.1v-8.3h-3v-1.8H188.9z"/>
			<path fill="#FB0EC7" d="M197.6,54.9c-0.8,0.8-1.9,1.2-3.3,1.2s-2.5-0.4-3.3-1.2c-1-1-1.5-2.3-1.5-4.2c0-1.8,0.5-3.2,1.5-4.2
				c0.8-0.8,1.9-1.2,3.3-1.2s2.5,0.4,3.3,1.2c1,0.9,1.5,2.3,1.5,4.2C199.2,52.6,198.7,54,197.6,54.9z M196.3,53.4
				c0.5-0.6,0.7-1.5,0.7-2.6c0-1.1-0.2-2-0.7-2.6c-0.5-0.6-1.2-0.9-2-0.9s-1.5,0.3-2,0.9s-0.7,1.5-0.7,2.6s0.2,2,0.7,2.6
				s1.2,0.9,2,0.9S195.8,54,196.3,53.4z"/>
			<path fill="#FB0EC7" d="M208.5,54.9c-0.8,0.8-1.9,1.2-3.3,1.2s-2.5-0.4-3.3-1.2c-1-1-1.5-2.3-1.5-4.2c0-1.8,0.5-3.2,1.5-4.2
				c0.8-0.8,1.9-1.2,3.3-1.2s2.5,0.4,3.3,1.2c1,0.9,1.5,2.3,1.5,4.2C210.1,52.6,209.5,54,208.5,54.9z M207.2,53.4
				c0.5-0.6,0.7-1.5,0.7-2.6c0-1.1-0.2-2-0.7-2.6c-0.5-0.6-1.2-0.9-2-0.9s-1.5,0.3-2,0.9s-0.7,1.5-0.7,2.6s0.2,2,0.7,2.6
				s1.2,0.9,2,0.9S206.7,54,207.2,53.4z"/>
			<path fill="#FB0EC7" d="M211.7,45.7h2.1V54h5v1.8h-7.1V45.7z"/>
			<path fill="#FB0EC7" d="M221.7,52.7c0.1,0.5,0.2,0.8,0.4,1c0.3,0.4,0.9,0.6,1.8,0.6c0.5,0,0.9-0.1,1.2-0.2
				c0.6-0.2,0.9-0.6,0.9-1.2c0-0.3-0.1-0.6-0.4-0.8c-0.3-0.2-0.8-0.3-1.4-0.5l-1.1-0.2c-1.1-0.2-1.8-0.5-2.2-0.8
				c-0.7-0.5-1-1.2-1-2.2c0-0.9,0.3-1.7,1-2.2c0.7-0.6,1.6-0.9,2.9-0.9c1.1,0,2,0.3,2.8,0.8c0.8,0.6,1.2,1.4,1.2,2.5h-2
				c0-0.6-0.3-1-0.8-1.3c-0.3-0.2-0.8-0.3-1.3-0.3c-0.6,0-1,0.1-1.3,0.3c-0.3,0.2-0.5,0.5-0.5,0.9c0,0.4,0.2,0.6,0.5,0.8
				c0.2,0.1,0.7,0.3,1.3,0.4l1.8,0.4c0.8,0.2,1.4,0.4,1.7,0.7c0.6,0.5,0.9,1.2,0.9,2.1c0,0.9-0.4,1.7-1.1,2.3s-1.7,0.9-3,0.9
				c-1.3,0-2.4-0.3-3.1-0.9c-0.8-0.6-1.1-1.4-1.1-2.5H221.7z"/>
			<path fill="#FB0EC7" d="M175.9,66.9c-0.2-0.7-0.5-1.2-1.2-1.4c-0.3-0.2-0.7-0.2-1.2-0.2c-0.8,0-1.5,0.3-2,0.9
				c-0.5,0.6-0.8,1.5-0.8,2.8c0,1.2,0.3,2.1,0.8,2.6s1.2,0.8,1.9,0.8c0.7,0,1.3-0.2,1.7-0.6s0.7-0.9,0.8-1.6h-2.3v-1.7h4.2v5.4h-1.4
				l-0.2-1.3c-0.4,0.5-0.8,0.8-1.1,1c-0.6,0.3-1.2,0.5-2.1,0.5c-1.3,0-2.4-0.5-3.3-1.4c-0.9-0.9-1.3-2.2-1.3-3.8
				c0-1.6,0.4-2.9,1.3-3.9c0.9-1,2.1-1.5,3.6-1.5c1.3,0,2.3,0.3,3.1,1c0.8,0.6,1.2,1.5,1.3,2.4H175.9z"/>
			<path fill="#FB0EC7" d="M187.5,65.5h-5.3v2.1h4.9v1.8h-4.9V72h5.6v1.8h-7.6V63.7h7.4V65.5z"/>
			<path fill="#FB0EC7" d="M189.4,63.7h2.2l4,7v-7h2v10.1h-2.1l-4.1-7.1v7.1h-2V63.7z"/>
			<path fill="#FB0EC7" d="M207,65.5h-5.3v2.1h4.9v1.8h-4.9V72h5.6v1.8h-7.6V63.7h7.4V65.5z"/>
			<path fill="#FB0EC7" d="M215.3,64c0.4,0.2,0.7,0.4,0.9,0.7c0.2,0.3,0.4,0.5,0.5,0.8c0.1,0.3,0.2,0.7,0.2,1.1
				c0,0.5-0.1,0.9-0.4,1.4s-0.6,0.8-1.2,1c0.5,0.2,0.8,0.5,1,0.8c0.2,0.3,0.3,0.9,0.3,1.6V72c0,0.5,0,0.8,0.1,0.9
				c0.1,0.3,0.2,0.5,0.4,0.6v0.3h-2.3c-0.1-0.2-0.1-0.4-0.1-0.5c-0.1-0.3-0.1-0.6-0.1-0.9l0-0.9c0-0.6-0.1-1.1-0.3-1.3
				s-0.6-0.3-1.2-0.3h-2.1v4h-2.1V63.7h4.8C214.4,63.8,214.9,63.8,215.3,64z M210.9,65.5v2.7h2.3c0.5,0,0.8-0.1,1-0.2
				c0.4-0.2,0.6-0.6,0.6-1.1c0-0.6-0.2-1-0.6-1.2c-0.2-0.1-0.5-0.2-1-0.2H210.9z"/>
			<path fill="#FB0EC7" d="M220.9,73.8h-2.1V63.7h2.1V73.8z"/>
			<path fill="#FB0EC7" d="M223.8,64.8c0.8-0.8,1.8-1.2,3.1-1.2c1.7,0,2.9,0.6,3.7,1.7c0.4,0.6,0.7,1.3,0.7,1.9h-2.1
				c-0.1-0.5-0.3-0.8-0.5-1.1c-0.4-0.4-0.9-0.7-1.7-0.7c-0.8,0-1.3,0.3-1.8,0.9c-0.4,0.6-0.6,1.5-0.6,2.6s0.2,2,0.7,2.5
				s1,0.8,1.7,0.8c0.7,0,1.3-0.2,1.7-0.7c0.2-0.3,0.4-0.6,0.5-1.2h2.1c-0.2,1.1-0.6,2-1.4,2.7c-0.7,0.7-1.7,1-2.9,1
				c-1.4,0-2.6-0.5-3.4-1.4c-0.8-0.9-1.2-2.2-1.2-3.8C222.4,67.1,222.9,65.7,223.8,64.8z"/>
			<path fill="#FB0EC7" d="M167.1,83.5h-5.3v2.1h4.9v1.8h-4.9V90h5.6v1.8h-7.6V81.7h7.4V83.5z"/>
			<path fill="#FB0EC7" d="M169,81.7h2.1V90h5v1.8H169V81.7z"/>
			<path fill="#FB0EC7" d="M185,83.5h-5.3v2.1h4.9v1.8h-4.9V90h5.6v1.8h-7.6V81.7h7.4V83.5z"/>
			<path fill="#FB0EC7" d="M193.6,81.7h3v10.1h-2V85c0-0.2,0-0.5,0-0.8c0-0.4,0-0.6,0-0.8l-1.9,8.5h-2l-1.9-8.5c0,0.2,0,0.5,0,0.8
				c0,0.4,0,0.6,0,0.8v6.8h-2V81.7h3.1l1.8,7.9L193.6,81.7z"/>
			<path fill="#FB0EC7" d="M206,83.5h-5.3v2.1h4.9v1.8h-4.9V90h5.6v1.8h-7.6V81.7h7.4V83.5z"/>
			<path fill="#FB0EC7" d="M207.9,81.7h2.2l4,7v-7h2v10.1h-2.1l-4.1-7.1v7.1h-2V81.7z"/>
			<path fill="#FB0EC7" d="M225.3,81.7v1.8h-3v8.3h-2.1v-8.3h-3v-1.8H225.3z"/>
			<path fill="#FB0EC7" d="M228.1,88.7c0.1,0.5,0.2,0.8,0.4,1c0.3,0.4,0.9,0.6,1.8,0.6c0.5,0,0.9-0.1,1.2-0.2
				c0.6-0.2,0.9-0.6,0.9-1.2c0-0.3-0.1-0.6-0.4-0.8c-0.3-0.2-0.8-0.3-1.4-0.5l-1.1-0.2c-1.1-0.2-1.8-0.5-2.2-0.8
				c-0.7-0.5-1-1.2-1-2.2c0-0.9,0.3-1.7,1-2.2c0.7-0.6,1.6-0.9,2.9-0.9c1.1,0,2,0.3,2.8,0.8c0.8,0.6,1.2,1.4,1.2,2.5h-2
				c0-0.6-0.3-1-0.8-1.3c-0.3-0.2-0.8-0.3-1.3-0.3c-0.6,0-1,0.1-1.3,0.3c-0.3,0.2-0.5,0.5-0.5,0.9c0,0.4,0.2,0.6,0.5,0.8
				c0.2,0.1,0.7,0.3,1.3,0.4l1.8,0.4c0.8,0.2,1.4,0.4,1.7,0.7c0.6,0.5,0.9,1.2,0.9,2.1c0,0.9-0.4,1.7-1.1,2.3s-1.7,0.9-3,0.9
				c-1.3,0-2.4-0.3-3.1-0.9c-0.8-0.6-1.1-1.4-1.1-2.5H228.1z"/>
			<path fill="#FB0EC7" d="M156.1,108.9c-0.8,0.8-1.9,1.2-3.3,1.2s-2.5-0.4-3.3-1.2c-1-1-1.5-2.3-1.5-4.2c0-1.8,0.5-3.2,1.5-4.2
				c0.8-0.8,1.9-1.2,3.3-1.2s2.5,0.4,3.3,1.2c1,0.9,1.5,2.3,1.5,4.2C157.7,106.6,157.1,108,156.1,108.9z M154.8,107.4
				c0.5-0.6,0.7-1.5,0.7-2.6c0-1.1-0.2-2-0.7-2.6c-0.5-0.6-1.2-0.9-2-0.9s-1.5,0.3-2,0.9s-0.7,1.5-0.7,2.6s0.2,2,0.7,2.6
				s1.2,0.9,2,0.9S154.3,108,154.8,107.4z"/>
			<path fill="#FB0EC7" d="M166.8,100.8c0.3,0.4,0.5,0.9,0.5,1.5c0,0.6-0.2,1.1-0.5,1.5c-0.2,0.2-0.4,0.4-0.8,0.6
				c0.5,0.2,0.9,0.5,1.2,0.9s0.4,0.9,0.4,1.5c0,0.6-0.1,1.1-0.4,1.6c-0.2,0.3-0.4,0.6-0.7,0.8c-0.3,0.2-0.7,0.4-1.1,0.5
				s-0.9,0.1-1.4,0.1h-4.5V99.7h4.9C165.4,99.8,166.3,100.1,166.8,100.8z M161.3,101.5v2.2h2.4c0.4,0,0.8-0.1,1.1-0.2
				c0.3-0.2,0.4-0.5,0.4-0.9c0-0.5-0.2-0.8-0.5-0.9c-0.3-0.1-0.7-0.2-1.2-0.2H161.3z M161.3,105.4v2.7h2.4c0.4,0,0.8-0.1,1-0.2
				c0.4-0.2,0.7-0.6,0.7-1.3c0-0.5-0.2-0.9-0.6-1.1c-0.2-0.1-0.6-0.2-1-0.2H161.3z"/>
			<path fill="#FB0EC7" d="M170.6,106v0.2c0,0.8,0.1,1.3,0.2,1.6c0.1,0.3,0.5,0.5,0.9,0.5c0.5,0,0.8-0.2,0.9-0.5
				c0.1-0.2,0.1-0.6,0.1-1v-7h2.1v7c0,0.9-0.1,1.5-0.4,2c-0.5,0.8-1.4,1.3-2.7,1.3c-1.3,0-2.1-0.3-2.6-1c-0.4-0.7-0.7-1.6-0.7-2.8
				V106H170.6z"/>
			<path fill="#FB0EC7" d="M184.6,101.5h-5.3v2.1h4.9v1.8h-4.9v2.6h5.6v1.8h-7.6V99.7h7.4V101.5z"/>
			<path fill="#FB0EC7" d="M187.5,100.8c0.8-0.8,1.8-1.2,3.1-1.2c1.7,0,2.9,0.6,3.7,1.7c0.4,0.6,0.7,1.3,0.7,1.9h-2.1
				c-0.1-0.5-0.3-0.8-0.5-1.1c-0.4-0.4-0.9-0.7-1.7-0.7c-0.8,0-1.3,0.3-1.8,0.9c-0.4,0.6-0.6,1.5-0.6,2.6s0.2,2,0.7,2.5
				c0.5,0.6,1,0.8,1.7,0.8c0.7,0,1.3-0.2,1.7-0.7c0.2-0.3,0.4-0.6,0.5-1.2h2.1c-0.2,1.1-0.6,2-1.4,2.7c-0.7,0.7-1.7,1-2.9,1
				c-1.4,0-2.6-0.5-3.4-1.4c-0.8-0.9-1.2-2.2-1.2-3.8C186.1,103.1,186.5,101.7,187.5,100.8z"/>
			<path fill="#FB0EC7" d="M203.9,99.7v1.8h-3v8.3h-2.1v-8.3h-3v-1.8H203.9z"/>
			<path fill="#FB0EC7" d="M206.7,106.7c0.1,0.5,0.2,0.8,0.4,1c0.3,0.4,0.9,0.6,1.8,0.6c0.5,0,0.9-0.1,1.2-0.2
				c0.6-0.2,0.9-0.6,0.9-1.2c0-0.3-0.1-0.6-0.4-0.8c-0.3-0.2-0.8-0.3-1.4-0.5l-1.1-0.2c-1.1-0.2-1.8-0.5-2.2-0.8
				c-0.7-0.5-1-1.2-1-2.2c0-0.9,0.3-1.7,1-2.2c0.7-0.6,1.6-0.9,2.9-0.9c1.1,0,2,0.3,2.8,0.8c0.8,0.6,1.2,1.4,1.2,2.5h-2
				c0-0.6-0.3-1-0.8-1.3c-0.3-0.2-0.8-0.3-1.3-0.3c-0.6,0-1,0.1-1.3,0.3c-0.3,0.2-0.5,0.5-0.5,0.9c0,0.4,0.2,0.6,0.5,0.8
				c0.2,0.1,0.7,0.3,1.3,0.4l1.8,0.4c0.8,0.2,1.4,0.4,1.7,0.7c0.6,0.5,0.9,1.2,0.9,2.1c0,0.9-0.4,1.7-1.1,2.3s-1.7,0.9-3,0.9
				c-1.3,0-2.4-0.3-3.1-0.9c-0.8-0.6-1.1-1.4-1.1-2.5H206.7z"/>
			<path fill="#FB0EC7" d="M139.2,118.8c0.8-0.8,1.8-1.2,3.1-1.2c1.7,0,2.9,0.6,3.7,1.7c0.4,0.6,0.7,1.3,0.7,1.9h-2.1
				c-0.1-0.5-0.3-0.8-0.5-1.1c-0.4-0.4-0.9-0.7-1.7-0.7c-0.8,0-1.3,0.3-1.8,0.9c-0.4,0.6-0.6,1.5-0.6,2.6s0.2,2,0.7,2.5
				c0.5,0.6,1,0.8,1.7,0.8c0.7,0,1.3-0.2,1.7-0.7c0.2-0.3,0.4-0.6,0.5-1.2h2.1c-0.2,1.1-0.6,2-1.4,2.7c-0.7,0.7-1.7,1-2.9,1
				c-1.4,0-2.6-0.5-3.4-1.4c-0.8-0.9-1.2-2.2-1.2-3.8C137.8,121.1,138.2,119.7,139.2,118.8z"/>
			<path fill="#FB0EC7" d="M156.1,126.9c-0.8,0.8-1.9,1.2-3.3,1.2s-2.5-0.4-3.3-1.2c-1-1-1.5-2.3-1.5-4.2c0-1.8,0.5-3.2,1.5-4.2
				c0.8-0.8,1.9-1.2,3.3-1.2s2.5,0.4,3.3,1.2c1,0.9,1.5,2.3,1.5,4.2C157.6,124.6,157.1,126,156.1,126.9z M154.8,125.4
				c0.5-0.6,0.7-1.5,0.7-2.6c0-1.1-0.2-2-0.7-2.6c-0.5-0.6-1.2-0.9-2-0.9s-1.5,0.3-2,0.9s-0.7,1.5-0.7,2.6s0.2,2,0.7,2.6
				s1.2,0.9,2,0.9S154.3,126,154.8,125.4z"/>
			<path fill="#FB0EC7" d="M165.9,117.7h3v10.1h-2V121c0-0.2,0-0.5,0-0.8c0-0.4,0-0.6,0-0.8l-1.9,8.5h-2l-1.9-8.5c0,0.2,0,0.5,0,0.8
				c0,0.4,0,0.6,0,0.8v6.8h-2v-10.1h3.1l1.8,7.9L165.9,117.7z"/>
			<path fill="#FB0EC7" d="M177.6,123.5c-0.6,0.5-1.4,0.7-2.5,0.7H173v3.6h-2.1v-10.1h4.3c1,0,1.8,0.3,2.4,0.8s0.9,1.3,0.9,2.4
				C178.5,122.1,178.2,123,177.6,123.5z M176,119.8c-0.3-0.2-0.6-0.3-1.1-0.3H173v3h1.9c0.5,0,0.9-0.1,1.1-0.4s0.4-0.6,0.4-1.1
				S176.3,120,176,119.8z"/>
			<path fill="#FB0EC7" d="M188,126.9c-0.8,0.8-1.9,1.2-3.3,1.2s-2.5-0.4-3.3-1.2c-1-1-1.5-2.3-1.5-4.2c0-1.8,0.5-3.2,1.5-4.2
				c0.8-0.8,1.9-1.2,3.3-1.2s2.5,0.4,3.3,1.2c1,0.9,1.5,2.3,1.5,4.2C189.5,124.6,189,126,188,126.9z M186.6,125.4
				c0.5-0.6,0.7-1.5,0.7-2.6c0-1.1-0.2-2-0.7-2.6c-0.5-0.6-1.2-0.9-2-0.9s-1.5,0.3-2,0.9s-0.7,1.5-0.7,2.6s0.2,2,0.7,2.6
				s1.2,0.9,2,0.9S186.2,126,186.6,125.4z"/>
			<path fill="#FB0EC7" d="M191.1,117.7h2.2l4,7v-7h2v10.1h-2.1l-4.1-7.1v7.1h-2V117.7z"/>
			<path fill="#FB0EC7" d="M208.6,119.5h-5.3v2.1h4.9v1.8h-4.9v2.6h5.6v1.8h-7.6v-10.1h7.4V119.5z"/>
			<path fill="#FB0EC7" d="M210.5,117.7h2.2l4,7v-7h2v10.1h-2.1l-4.1-7.1v7.1h-2V117.7z"/>
			<path fill="#FB0EC7" d="M228,117.7v1.8h-3v8.3h-2.1v-8.3h-3v-1.8H228z"/>
			<path fill="#FB0EC7" d="M230.7,124.7c0.1,0.5,0.2,0.8,0.4,1c0.3,0.4,0.9,0.6,1.8,0.6c0.5,0,0.9-0.1,1.2-0.2
				c0.6-0.2,0.9-0.6,0.9-1.2c0-0.3-0.1-0.6-0.4-0.8c-0.3-0.2-0.8-0.3-1.4-0.5l-1.1-0.2c-1.1-0.2-1.8-0.5-2.2-0.8
				c-0.7-0.5-1-1.2-1-2.2c0-0.9,0.3-1.7,1-2.2c0.7-0.6,1.6-0.9,2.9-0.9c1.1,0,2,0.3,2.8,0.8c0.8,0.6,1.2,1.4,1.2,2.5h-2
				c0-0.6-0.3-1-0.8-1.3c-0.3-0.2-0.8-0.3-1.3-0.3c-0.6,0-1,0.1-1.3,0.3c-0.3,0.2-0.5,0.5-0.5,0.9c0,0.4,0.2,0.6,0.5,0.8
				c0.2,0.1,0.7,0.3,1.3,0.4l1.8,0.4c0.8,0.2,1.4,0.4,1.7,0.7c0.6,0.5,0.9,1.2,0.9,2.1c0,0.9-0.4,1.7-1.1,2.3s-1.7,0.9-3,0.9
				c-1.3,0-2.4-0.3-3.1-0.9c-0.8-0.6-1.1-1.4-1.1-2.5H230.7z"/>
			<path fill="#FB0EC7" d="M136.7,135.7v1.8h-3v8.3h-2.1v-8.3h-3v-1.8H136.7z"/>
			<path fill="#FB0EC7" d="M144.4,136c0.4,0.2,0.7,0.4,0.9,0.7c0.2,0.3,0.4,0.5,0.5,0.8c0.1,0.3,0.2,0.7,0.2,1.1
				c0,0.5-0.1,0.9-0.4,1.4c-0.2,0.5-0.6,0.8-1.2,1c0.5,0.2,0.8,0.5,1,0.8c0.2,0.3,0.3,0.9,0.3,1.6v0.7c0,0.5,0,0.8,0.1,0.9
				c0.1,0.3,0.2,0.5,0.4,0.6v0.3h-2.3c-0.1-0.2-0.1-0.4-0.1-0.5c-0.1-0.3-0.1-0.6-0.1-0.9l0-0.9c0-0.6-0.1-1.1-0.3-1.3
				s-0.6-0.3-1.2-0.3h-2.1v4H138v-10.1h4.8C143.5,135.8,144.1,135.8,144.4,136z M140.1,137.5v2.7h2.3c0.5,0,0.8-0.1,1-0.2
				c0.4-0.2,0.6-0.6,0.6-1.1c0-0.6-0.2-1-0.6-1.2c-0.2-0.1-0.5-0.2-1-0.2H140.1z"/>
			<path fill="#FB0EC7" d="M148.1,135.7h2.1v6.2c0,0.7,0.1,1.2,0.2,1.5c0.3,0.6,0.8,0.8,1.7,0.8c0.8,0,1.4-0.3,1.7-0.8
				c0.2-0.3,0.2-0.8,0.2-1.5v-6.2h2.1v6.2c0,1.1-0.2,1.9-0.5,2.5c-0.6,1.1-1.8,1.6-3.5,1.6s-2.9-0.5-3.5-1.6
				c-0.3-0.6-0.5-1.4-0.5-2.5V135.7z"/>
			<path fill="#FB0EC7" d="M164.9,135.7h3v10.1h-2V139c0-0.2,0-0.5,0-0.8c0-0.4,0-0.6,0-0.8l-1.9,8.5h-2l-1.9-8.5c0,0.2,0,0.5,0,0.8
				c0,0.4,0,0.6,0,0.8v6.8h-2v-10.1h3.1l1.8,7.9L164.9,135.7z"/>
			<path fill="#FB0EC7" d="M176.6,141.5c-0.6,0.5-1.4,0.7-2.5,0.7H172v3.6h-2.1v-10.1h4.3c1,0,1.8,0.3,2.4,0.8s0.9,1.3,0.9,2.4
				C177.5,140.1,177.2,141,176.6,141.5z M175,137.8c-0.3-0.2-0.6-0.3-1.1-0.3H172v3h1.9c0.5,0,0.9-0.1,1.1-0.4s0.4-0.6,0.4-1.1
				S175.3,138,175,137.8z"/>
			<path fill="#FB0EC7" d="M180.7,142.7c0.1,0.5,0.2,0.8,0.4,1c0.3,0.4,0.9,0.6,1.8,0.6c0.5,0,0.9-0.1,1.2-0.2
				c0.6-0.2,0.9-0.6,0.9-1.2c0-0.3-0.1-0.6-0.4-0.8c-0.3-0.2-0.8-0.3-1.4-0.5l-1.1-0.2c-1.1-0.2-1.8-0.5-2.2-0.8
				c-0.7-0.5-1-1.2-1-2.2c0-0.9,0.3-1.7,1-2.2c0.7-0.6,1.6-0.9,2.9-0.9c1.1,0,2,0.3,2.8,0.8c0.8,0.6,1.2,1.4,1.2,2.5h-2
				c0-0.6-0.3-1-0.8-1.3c-0.3-0.2-0.8-0.3-1.3-0.3c-0.6,0-1,0.1-1.3,0.3c-0.3,0.2-0.5,0.5-0.5,0.9c0,0.4,0.2,0.6,0.5,0.8
				c0.2,0.1,0.7,0.3,1.3,0.4l1.8,0.4c0.8,0.2,1.4,0.4,1.7,0.7c0.6,0.5,0.9,1.2,0.9,2.1c0,0.9-0.4,1.7-1.1,2.3s-1.7,0.9-3,0.9
				c-1.3,0-2.4-0.3-3.1-0.9c-0.8-0.6-1.1-1.4-1.1-2.5H180.7z"/>
		</g>
		<g>
			<path fill="#FB0EC7" d="M89.4,1.1c0.4,0.2,0.7,0.4,0.9,0.7c0.2,0.3,0.4,0.5,0.5,0.8c0.1,0.3,0.2,0.7,0.2,1.1
				c0,0.5-0.1,0.9-0.4,1.4s-0.6,0.8-1.2,1c0.5,0.2,0.8,0.5,1,0.8s0.3,0.9,0.3,1.6v0.7c0,0.5,0,0.8,0.1,0.9c0.1,0.3,0.2,0.5,0.4,0.6
				v0.3h-2.3c-0.1-0.2-0.1-0.4-0.1-0.5c-0.1-0.3-0.1-0.6-0.1-0.9l0-0.9c0-0.6-0.1-1.1-0.3-1.3s-0.6-0.3-1.2-0.3h-2.1v4H83V0.8h4.8
				C88.5,0.8,89.1,0.9,89.4,1.1z M85.1,2.6v2.7h2.3c0.4,0,0.8-0.1,1-0.2C88.8,4.9,89,4.5,89,4c0-0.6-0.2-1-0.6-1.2
				c-0.2-0.1-0.5-0.2-1-0.2H85.1z"/>
			<path fill="#FB0EC7" d="M100.5,2.6h-5.3v2.1h4.9v1.8h-4.9v2.6h5.6v1.8h-7.6V0.8h7.4V2.6z"/>
			<path fill="#FB0EC7" d="M105.3,0.8h2.4l3.6,10.1H109l-0.7-2.1h-3.7l-0.7,2.1h-2.2L105.3,0.8z M105.2,7.1h2.6l-1.3-4L105.2,7.1z"
				/>
			<path fill="#FB0EC7" d="M113.5,1.9c0.8-0.8,1.8-1.2,3.1-1.2c1.7,0,2.9,0.6,3.7,1.7c0.4,0.6,0.7,1.3,0.7,1.9h-2.1
				c-0.1-0.5-0.3-0.8-0.5-1.1c-0.4-0.4-0.9-0.7-1.7-0.7c-0.8,0-1.3,0.3-1.8,0.9s-0.6,1.5-0.6,2.6s0.2,2,0.7,2.5s1,0.8,1.7,0.8
				c0.7,0,1.3-0.2,1.7-0.7c0.2-0.3,0.4-0.6,0.5-1.2h2.1c-0.2,1.1-0.6,2-1.4,2.7c-0.7,0.7-1.7,1-2.9,1c-1.4,0-2.6-0.5-3.4-1.4
				c-0.8-0.9-1.2-2.2-1.2-3.8C112.1,4.2,112.6,2.8,113.5,1.9z"/>
			<path fill="#FB0EC7" d="M122.6,10.9V0.8h2.1v3.8h3.9V0.8h2.1v10.1h-2.1V6.4h-3.9v4.5H122.6z"/>
		</g>
		<g>
			<path fill="#FB0EC7" d="M22.1,53.1c-0.4,0.3-0.6,0.6-0.7,0.8c-0.2,0.5-0.1,1.1,0.4,1.9c0.3,0.4,0.5,0.8,0.8,1
				c0.5,0.4,1,0.5,1.5,0.2c0.3-0.2,0.4-0.4,0.4-0.8c0-0.3-0.1-0.8-0.3-1.4l-0.3-1.1c-0.3-1-0.5-1.8-0.4-2.3c0.1-0.8,0.5-1.5,1.4-2
				c0.8-0.5,1.6-0.5,2.4-0.3s1.6,1,2.2,2.1c0.5,0.9,0.8,1.9,0.6,2.8c-0.1,0.9-0.6,1.7-1.5,2.3l-1-1.8c0.5-0.3,0.7-0.8,0.7-1.3
				c0-0.4-0.2-0.8-0.4-1.2c-0.3-0.5-0.6-0.8-1-1c-0.4-0.2-0.7-0.2-1,0c-0.3,0.2-0.5,0.5-0.5,0.8c0,0.2,0.1,0.7,0.3,1.4l0.5,1.7
				c0.2,0.8,0.3,1.4,0.2,1.9c-0.1,0.8-0.6,1.4-1.3,1.8c-0.8,0.5-1.6,0.5-2.5,0.2s-1.6-1-2.3-2.2c-0.7-1.1-0.9-2.2-0.8-3.2
				c0.1-1,0.7-1.7,1.6-2.2L22.1,53.1z"/>
			<path fill="#FB0EC7" d="M30.4,65c-0.7-0.3-1.4-0.9-1.9-1.8l-1-1.8l-3.1,1.8l-1-1.8l8.7-5l2.2,3.7c0.5,0.9,0.7,1.7,0.5,2.5
				c-0.2,0.8-0.7,1.4-1.6,2C32,65.1,31.1,65.2,30.4,65z M32.7,61.7c0.1-0.3,0-0.7-0.3-1.1l-1-1.6l-2.6,1.5l1,1.6
				c0.2,0.4,0.5,0.7,0.9,0.8c0.3,0.1,0.7,0,1.2-0.2C32.4,62.4,32.7,62.1,32.7,61.7z"/>
			<path fill="#FB0EC7" d="M38.7,71.5l-2.7-4.6L34.2,68l2.5,4.2l-1.5,0.9l-2.5-4.2l-2.2,1.3l2.8,4.8l-1.6,0.9l-3.8-6.6l8.7-5
				l3.7,6.4L38.7,71.5z"/>
			<path fill="#FB0EC7" d="M40.7,73.5c1.1,0.3,2,1,2.6,2.1c0.8,1.5,1,2.8,0.4,4c-0.3,0.7-0.8,1.2-1.3,1.5l-1.1-1.8
				c0.4-0.4,0.6-0.7,0.7-1c0.2-0.5,0.1-1.1-0.3-1.8c-0.4-0.6-0.9-1-1.7-1.1c-0.8-0.1-1.6,0.2-2.6,0.8c-1,0.6-1.6,1.2-1.9,1.9
				c-0.3,0.7-0.2,1.3,0.1,1.9c0.4,0.6,0.8,1,1.5,1.1c0.3,0.1,0.8,0,1.3-0.1l1,1.8c-1,0.4-2,0.4-3,0.1s-1.7-0.9-2.3-2
				c-0.7-1.2-0.9-2.5-0.5-3.6c0.4-1.2,1.3-2.2,2.7-3C38,73.5,39.4,73.2,40.7,73.5z"/>
			<path fill="#FB0EC7" d="M38.4,87.5l-1-1.8l8.7-5l1,1.8L38.4,87.5z"/>
			<path fill="#FB0EC7" d="M48,84l3.6,6.2l-1.5,0.9l-2.5-4.4l-2,1.2l2.2,3.9l-1.5,0.9L44,88.8l-3.7,2.1l-1-1.8L48,84z"/>
			<path fill="#FB0EC7" d="M44.5,98l-1-1.8l8.7-5l1,1.8L44.5,98z"/>
			<path fill="#FB0EC7" d="M53.7,95.9c1.1,0.3,2,1,2.6,2.1c0.8,1.5,1,2.8,0.4,4c-0.3,0.7-0.8,1.2-1.3,1.5l-1.1-1.8
				c0.4-0.4,0.6-0.7,0.7-1c0.2-0.5,0.1-1.1-0.3-1.8c-0.4-0.6-0.9-1-1.7-1.1c-0.8-0.1-1.6,0.2-2.6,0.8c-1,0.6-1.6,1.2-1.9,1.9
				c-0.3,0.7-0.2,1.3,0.1,1.9c0.4,0.6,0.8,1,1.5,1.1c0.3,0.1,0.8,0,1.3-0.1l1,1.8c-1,0.4-2,0.4-3,0.1c-1-0.3-1.7-0.9-2.3-1.9
				c-0.7-1.2-0.9-2.5-0.5-3.6c0.4-1.2,1.3-2.2,2.7-3C51,95.9,52.4,95.6,53.7,95.9z"/>
			<path fill="#FB0EC7" d="M51.3,109.9l-1-1.8l8.7-5l1,1.8L51.3,109.9z"/>
			<path fill="#FB0EC7" d="M64.6,112.8l-1.5,0.9l-1.5-2.6l-7.2,4.2l-1.1-1.8l7.2-4.2l-1.5-2.6l1.5-0.9L64.6,112.8z"/>
			<path fill="#FB0EC7" d="M68.1,118.7l1.2,2.1l-7.1,0.2l-3.3,1.9l-1.1-1.8l3.3-1.9l3.7-6.2l1.2,2.1l-2.8,4L68.1,118.7z"/>
			<path fill="#FB0EC7" d="M11.1,59.8l-2.7-4.6l-1.9,1.1l2.5,4.2l-1.5,0.9l-2.5-4.2l-2.2,1.3l2.8,4.8l-1.6,0.9l-3.8-6.6l8.7-5
				l3.7,6.4L11.1,59.8z"/>
			<path fill="#FB0EC7" d="M5.6,66.9l-1.2-2.1l6.1,0.2l2.7-5.1l1.3,2.2l-1.9,3.2l3.8,0l1.2,2.1L11.8,67l-2.9,5.4l-1.3-2.2l2-3.4
				L5.6,66.9z"/>
			<path fill="#FB0EC7" d="M16.6,77.1c-0.7-0.3-1.4-0.9-1.9-1.8l-1-1.8l-3.1,1.8l-1-1.8l8.7-5l2.2,3.7c0.5,0.9,0.7,1.7,0.5,2.5
				c-0.2,0.8-0.7,1.4-1.6,2C18.2,77.2,17.3,77.4,16.6,77.1z M18.9,73.9c0.1-0.3,0-0.7-0.3-1.1l-1-1.6l-2.6,1.5l1,1.6
				c0.2,0.4,0.5,0.7,0.9,0.8c0.3,0.1,0.7,0,1.2-0.2S18.9,74.2,18.9,73.9z"/>
			<path fill="#FB0EC7" d="M22.8,76.3l1.1,1.8l-7.2,4.1l2.5,4.4l-1.6,0.9l-3.6-6.2L22.8,76.3z"/>
			<path fill="#FB0EC7" d="M19.2,90.3l-1-1.8l8.7-5l1,1.8L19.2,90.3z"/>
			<path fill="#FB0EC7" d="M28.4,88.2c1.1,0.3,2,1,2.6,2.1c0.8,1.5,1,2.8,0.4,4c-0.3,0.7-0.8,1.2-1.3,1.5L29.1,94
				c0.4-0.4,0.6-0.7,0.7-1c0.2-0.5,0.1-1.1-0.3-1.8c-0.4-0.6-0.9-1-1.7-1.1c-0.8-0.1-1.6,0.2-2.6,0.8c-1,0.6-1.6,1.2-1.9,1.9
				c-0.3,0.7-0.2,1.3,0.1,1.9c0.4,0.6,0.8,1,1.5,1.1c0.3,0.1,0.8,0,1.3-0.1l1,1.8c-1,0.4-2,0.4-3,0.1c-1-0.3-1.7-0.9-2.3-2
				c-0.7-1.2-0.9-2.4-0.5-3.6c0.4-1.2,1.3-2.2,2.7-3C25.7,88.2,27.1,87.9,28.4,88.2z"/>
			<path fill="#FB0EC7" d="M26.1,102.2l-1-1.8l8.7-5l1,1.8L26.1,102.2z"/>
			<path fill="#FB0EC7" d="M39.4,105.1l-1.5,0.9l-1.5-2.6l-7.2,4.2l-1.1-1.8l7.2-4.2l-1.5-2.6l1.5-0.9L39.4,105.1z"/>
			<path fill="#FB0EC7" d="M39.9,106l1.1,1.9l-4.1,7l6.1-3.5l1,1.7l-8.7,5l-1.1-1.8l4.1-7.1l-6.2,3.6l-1-1.7L39.9,106z"/>
			<path fill="#FB0EC7" d="M47.1,122l-2.7-4.6l-1.9,1.1l2.5,4.2l-1.5,0.9l-2.5-4.2l-2.2,1.3l2.8,4.8l-1.6,0.9l-3.8-6.6l8.7-5
				l3.7,6.4L47.1,122z"/>
			<path fill="#FB0EC7" d="M44.3,127.4c-0.4,0.3-0.6,0.6-0.7,0.8c-0.2,0.5-0.1,1.1,0.4,1.9c0.3,0.4,0.5,0.8,0.8,1
				c0.5,0.4,1,0.5,1.5,0.2c0.3-0.2,0.4-0.4,0.4-0.8c0-0.3-0.1-0.8-0.3-1.4L46,128c-0.3-1-0.5-1.8-0.4-2.3c0.1-0.8,0.5-1.5,1.4-2
				c0.8-0.5,1.6-0.5,2.4-0.3c0.9,0.3,1.6,1,2.2,2.1c0.5,0.9,0.8,1.9,0.6,2.8c-0.1,0.9-0.6,1.7-1.5,2.3l-1-1.8
				c0.5-0.3,0.7-0.8,0.7-1.4c0-0.4-0.2-0.8-0.4-1.2c-0.3-0.5-0.6-0.8-1-1c-0.4-0.2-0.7-0.2-1,0c-0.3,0.2-0.5,0.5-0.5,0.8
				c0,0.2,0.1,0.7,0.3,1.4l0.5,1.7c0.2,0.8,0.3,1.4,0.2,1.9c-0.1,0.8-0.6,1.4-1.3,1.8c-0.8,0.5-1.6,0.5-2.5,0.2s-1.6-1-2.3-2.2
				c-0.7-1.1-0.9-2.2-0.8-3.2c0.1-1,0.7-1.7,1.6-2.2L44.3,127.4z"/>
			<path fill="#FB0EC7" d="M48.9,135.4c-0.4,0.3-0.6,0.6-0.7,0.8c-0.2,0.5-0.1,1.1,0.4,1.9c0.3,0.4,0.5,0.8,0.8,1
				c0.5,0.4,1,0.5,1.5,0.2c0.3-0.2,0.4-0.4,0.4-0.8c0-0.3-0.1-0.8-0.3-1.4l-0.3-1.1c-0.3-1-0.5-1.8-0.4-2.3c0.1-0.8,0.5-1.5,1.4-2
				c0.8-0.5,1.6-0.5,2.4-0.3c0.9,0.3,1.6,1,2.2,2.1c0.5,0.9,0.8,1.9,0.6,2.8c-0.1,0.9-0.6,1.7-1.5,2.3l-1-1.8
				c0.5-0.3,0.7-0.8,0.7-1.3c0-0.4-0.2-0.8-0.4-1.2c-0.3-0.5-0.6-0.8-1-1c-0.4-0.2-0.7-0.2-1,0c-0.3,0.2-0.5,0.5-0.5,0.8
				c0,0.2,0.1,0.7,0.3,1.4l0.5,1.7c0.2,0.8,0.3,1.4,0.2,1.9c-0.1,0.8-0.6,1.4-1.3,1.8c-0.8,0.5-1.6,0.5-2.5,0.2s-1.6-1-2.3-2.2
				c-0.7-1.1-0.9-2.2-0.8-3.2c0.1-1,0.7-1.7,1.6-2.2L48.9,135.4z"/>
		</g>
		<g id="Polygon_1_copy_2_">
			<g>
				<polygon fill-rule="evenodd" clip-rule="evenodd" fill="#FB0EC7" points="136.3,1.2 136.3,11.2 145.1,6.2 				"/>
			</g>
		</g>
		<g id="Polygon_1_copy_3_">
			<g>
				<polygon fill-rule="evenodd" clip-rule="evenodd" fill="#FB0EC7" points="77.8,0.9 69,5.9 77.8,10.8 				"/>
			</g>
		</g>
		<g id="Polygon_1_copy_3_3_">
			<g>
				<polygon fill-rule="evenodd" clip-rule="evenodd" fill="#FB0EC7" points="62.6,129.9 71.4,134.9 71.4,124.9 				"/>
			</g>
		</g>
		<g id="Polygon_1_copy_4">
			<g>
				<polygon fill-rule="evenodd" clip-rule="evenodd" fill="#FB0EC7" points="52.6,147.5 61.4,152.4 61.4,142.5 				"/>
			</g>
		</g>
	</g>
</g>
</svg>
